<?xml version="1.0" encoding="UTF-8" standalone="no"?>
<!DOCTYPE svg PUBLIC "-//W3C//DTD SVG 1.1//EN" "http://www.w3.org/Graphics/SVG/1.1/DTD/svg11.dtd">
<svg width="100%" height="100%" viewBox="0 0 512 512" version="1.1" xmlns="http://www.w3.org/2000/svg" xmlns:xlink="http://www.w3.org/1999/xlink" xml:space="preserve" xmlns:serif="http://www.serif.com/" style="fill-rule:evenodd;clip-rule:evenodd;stroke-linejoin:round;stroke-miterlimit:2;">
    <g transform="matrix(1.50917,0,0,1.50917,-127.287,-45.8341)">
        <g transform="matrix(0.866025,0.5,-0.625,1.08253,135.276,-79.8557)">
            <path d="M200,110.662C200,108.768 198.737,107.018 196.687,106.071C194.637,105.124 192.111,105.124 190.061,106.071C177.077,112.068 154.839,122.339 144.97,126.898C141.894,128.318 140,130.943 140,133.784L140,249.338C140,251.232 141.263,252.982 143.313,253.929C145.363,254.876 147.889,254.876 149.939,253.929C162.923,247.932 185.161,237.661 195.03,233.102C198.106,231.682 200,229.057 200,226.216L200,110.662Z" style="fill:rgb(179,15,39);"/>
        </g>
        <g transform="matrix(0.866025,0.5,-0.625,1.08253,245.335,-79.8557)">
            <path d="M200,110.662C200,108.768 198.737,107.018 196.687,106.071C194.637,105.124 192.111,105.124 190.061,106.071C177.077,112.068 154.839,122.339 144.97,126.898C141.894,128.318 140,130.943 140,133.784L140,249.338C140,251.232 141.263,252.982 143.313,253.929C145.363,254.876 147.889,254.876 149.939,253.929C162.923,247.932 185.161,237.661 195.03,233.102C198.106,231.682 200,229.057 200,226.216L200,110.662Z" style="fill:rgb(179,15,39);"/>
        </g>
        <g transform="matrix(0.971052,0,0,0.971052,37.0703,11.698)">
            <circle cx="356.242" cy="235.108" r="30.894" style="fill:rgb(179,15,39);"/>
        </g>
    </g>
</svg>
