<?xml version="1.0" encoding="UTF-8" standalone="no"?>
<!DOCTYPE svg PUBLIC "-//W3C//DTD SVG 1.1//EN" "http://www.w3.org/Graphics/SVG/1.1/DTD/svg11.dtd">
<svg width="100%" height="100%" viewBox="0 0 1600 670" version="1.1" xmlns="http://www.w3.org/2000/svg" xmlns:xlink="http://www.w3.org/1999/xlink" xml:space="preserve" xmlns:serif="http://www.serif.com/" style="fill-rule:evenodd;clip-rule:evenodd;stroke-linejoin:round;stroke-miterlimit:2;">
    <g transform="matrix(1.26291,0,0,1.26291,-30.8938,-64.1612)">
        <g transform="matrix(1.30698,0.754585,-0.943232,1.63372,97.2064,-107.992)">
            <path d="M200,108.75C200,107.251 199,105.865 197.377,105.115C195.753,104.366 193.753,104.366 192.13,105.115C179.143,111.114 153.691,122.869 143.935,127.376C141.5,128.5 140,130.579 140,132.828C140,150.454 140,227.156 140,251.25C140,252.749 141,254.135 142.623,254.885C144.247,255.634 146.247,255.634 147.87,254.885C160.857,248.886 186.309,237.131 196.065,232.624C198.5,231.5 200,229.421 200,227.172C200,209.546 200,132.844 200,108.75Z" style="fill:rgb(179,15,39);"/>
        </g>
        <g transform="matrix(1.30698,0.754585,-0.943232,1.63372,263.305,-107.992)">
            <path d="M200,108.75C200,107.251 199,105.865 197.377,105.115C195.753,104.366 193.753,104.366 192.13,105.115C179.143,111.114 153.691,122.869 143.935,127.376C141.5,128.5 140,130.579 140,132.828C140,150.454 140,227.156 140,251.25C140,252.749 141,254.135 142.623,254.885C144.247,255.634 146.247,255.634 147.87,254.885C160.857,248.886 186.309,237.131 196.065,232.624C198.5,231.5 200,229.421 200,227.172C200,209.546 200,132.844 200,108.75Z" style="fill:rgb(179,15,39);"/>
        </g>
        <g transform="matrix(1.46548,0,0,1.46548,-51.0022,30.1783)">
            <circle cx="356.242" cy="235.108" r="30.894" style="fill:rgb(179,15,39);"/>
        </g>
        <g transform="matrix(1,0,0,1,-11.5051,20.2889)">
            <path d="M702.394,337.929L586.417,337.929C588.092,348.156 592.567,356.289 599.84,362.328C607.113,368.367 616.392,371.387 627.677,371.387C641.166,371.387 652.759,366.67 662.457,357.237L692.873,371.519C685.291,382.275 676.21,390.231 665.631,395.389C655.051,400.546 642.488,403.125 627.941,403.125C605.372,403.125 586.99,396.006 572.796,381.768C558.602,367.53 551.505,349.699 551.505,328.276C551.505,306.323 558.58,288.096 572.73,273.593C586.88,259.091 604.623,251.839 625.958,251.839C648.615,251.839 667.041,259.091 681.235,273.593C695.429,288.096 702.526,307.249 702.526,331.053L702.394,337.929ZM666.292,309.497C663.907,301.474 659.205,294.95 652.184,289.925C645.164,284.9 637.017,282.387 627.743,282.387C617.676,282.387 608.845,285.208 601.251,290.851C596.482,294.377 592.066,300.593 588.004,309.497L666.292,309.497Z" style="fill:rgb(110,110,110);fill-rule:nonzero;"/>
            <path d="M837.811,200L873.913,200L873.913,399.422L837.811,399.422L837.811,384.214C830.766,390.915 823.699,395.741 816.611,398.695C809.522,401.648 801.839,403.125 793.561,403.125C774.981,403.125 758.91,395.918 745.349,381.503C731.788,367.089 725.008,349.17 725.008,327.747C725.008,305.53 731.568,287.324 744.689,273.13C757.81,258.936 773.749,251.839 792.505,251.839C801.134,251.839 809.235,253.47 816.808,256.732C824.381,259.994 831.382,264.887 837.811,271.411L837.811,200ZM799.859,285.164C788.7,285.164 779.43,289.11 772.049,297C764.668,304.891 760.978,315.007 760.978,327.35C760.978,339.781 764.734,350.007 772.246,358.03C779.759,366.053 789.006,370.064 799.989,370.064C811.325,370.064 820.727,366.119 828.195,358.229C835.664,350.338 839.398,340.001 839.398,327.218C839.398,314.699 835.664,304.56 828.195,296.802C820.727,289.044 811.282,285.164 799.859,285.164Z" style="fill:rgb(110,110,110);fill-rule:nonzero;"/>
            <path d="M924.496,196.297C930.826,196.297 936.254,198.589 940.782,203.174C945.309,207.758 947.572,213.312 947.572,219.836C947.572,226.272 945.331,231.76 940.848,236.301C936.365,240.841 931.002,243.111 924.761,243.111C918.343,243.111 912.87,240.797 908.343,236.168C903.816,231.54 901.552,225.92 901.552,219.307C901.552,212.96 903.794,207.538 908.277,203.042C912.76,198.545 918.166,196.297 924.496,196.297ZM906.445,255.542L942.547,255.542L942.547,399.422L906.445,399.422L906.445,255.542Z" style="fill:rgb(110,110,110);fill-rule:nonzero;"/>
            <path d="M1116.18,284.635L1086.13,301.166C1080.48,295.259 1074.89,291.159 1069.38,288.867C1063.86,286.575 1057.4,285.429 1049.98,285.429C1036.48,285.429 1025.55,289.456 1017.21,297.51C1008.87,305.565 1004.7,315.885 1004.7,328.472C1004.7,340.708 1008.72,350.7 1016.75,358.446C1024.78,366.191 1035.33,370.064 1048.39,370.064C1064.55,370.064 1077.13,364.554 1086.13,353.534L1114.6,373.025C1099.17,393.092 1077.39,403.125 1049.27,403.125C1023.97,403.125 1004.15,395.631 989.824,380.644C975.498,365.656 968.335,348.112 968.335,328.011C968.335,314.081 971.817,301.254 978.782,289.528C985.747,277.803 995.466,268.59 1007.94,261.89C1020.42,255.189 1034.37,251.839 1049.8,251.839C1064.08,251.839 1076.91,254.682 1088.28,260.369C1099.65,266.055 1108.95,274.144 1116.18,284.635Z" style="fill:rgb(110,110,110);fill-rule:nonzero;"/>
            <path d="M1254.9,255.542L1291.01,255.542L1291.01,399.422L1254.9,399.422L1254.9,384.214C1247.86,390.915 1240.79,395.741 1233.7,398.695C1226.62,401.648 1218.93,403.125 1210.65,403.125C1192.08,403.125 1176,395.918 1162.44,381.503C1148.88,367.089 1142.1,349.17 1142.1,327.747C1142.1,305.53 1148.66,287.324 1161.78,273.13C1174.9,258.936 1190.84,251.839 1209.6,251.839C1218.23,251.839 1226.33,253.47 1233.9,256.732C1241.48,259.994 1248.48,264.887 1254.9,271.411L1254.9,255.542ZM1216.95,285.164C1205.79,285.164 1196.52,289.11 1189.14,297C1181.76,304.891 1178.07,315.007 1178.07,327.35C1178.07,339.781 1181.83,350.007 1189.34,358.03C1196.85,366.053 1206.1,370.064 1217.08,370.064C1228.42,370.064 1237.82,366.119 1245.29,358.229C1252.76,350.338 1256.49,340.001 1256.49,327.218C1256.49,314.699 1252.76,304.56 1245.29,296.802C1237.82,289.044 1228.38,285.164 1216.95,285.164Z" style="fill:rgb(110,110,110);fill-rule:nonzero;"/>
        </g>
    </g>
</svg>
